<svg id="svg" xmlns="http://www.w3.org/2000/svg" xmlns:xlink="http://www.w3.org/1999/xlink" width="400" height="426.6666666666667" viewBox="0, 0, 400,426.6666666666667" version="1.1"><g id="svgg"><path id="path0" d="M110.000 78.044 C 107.345 78.531,104.926 79.154,103.826 79.634 C 103.364 79.835,102.863 80.000,102.712 80.000 C 102.561 80.000,101.679 80.343,100.752 80.762 C 99.825 81.182,98.887 81.603,98.667 81.699 C 98.447 81.794,97.907 82.109,97.467 82.399 C 97.027 82.689,96.427 83.047,96.133 83.195 C 95.495 83.519,94.585 84.081,94.400 84.267 C 94.327 84.341,93.757 84.747,93.133 85.170 C 92.510 85.593,92.000 86.043,92.000 86.170 C 92.000 86.296,91.869 86.400,91.709 86.400 C 91.330 86.400,86.400 91.330,86.400 91.709 C 86.400 91.869,86.296 92.000,86.170 92.000 C 86.043 92.000,85.593 92.510,85.170 93.133 C 84.747 93.757,84.332 94.327,84.248 94.400 C 84.164 94.473,84.012 94.713,83.911 94.933 C 83.810 95.153,83.491 95.693,83.201 96.133 C 82.911 96.573,82.553 97.173,82.405 97.467 C 82.256 97.760,82.019 98.180,81.877 98.400 C 80.736 100.172,78.882 105.454,78.413 108.267 C 78.279 109.073,78.041 110.380,77.884 111.170 C 77.387 113.681,77.504 287.103,78.005 289.467 C 78.222 290.493,78.400 291.585,78.400 291.893 C 78.400 293.332,81.096 300.484,82.412 302.533 C 82.694 302.973,83.047 303.573,83.195 303.867 C 83.519 304.505,84.081 305.415,84.267 305.600 C 84.341 305.673,84.747 306.243,85.170 306.867 C 85.593 307.490,86.043 308.000,86.170 308.000 C 86.296 308.000,86.400 308.131,86.400 308.291 C 86.400 308.670,91.330 313.600,91.709 313.600 C 91.869 313.600,92.000 313.704,92.000 313.830 C 92.000 313.957,92.510 314.407,93.133 314.830 C 93.757 315.253,94.327 315.659,94.400 315.733 C 94.585 315.919,95.495 316.481,96.133 316.805 C 96.427 316.953,97.027 317.311,97.467 317.601 C 97.907 317.891,98.447 318.206,98.667 318.303 C 98.887 318.399,99.727 318.774,100.533 319.137 C 102.376 319.966,107.418 321.600,108.131 321.600 C 108.426 321.600,109.507 321.778,110.533 321.995 C 112.897 322.496,286.319 322.613,288.830 322.116 C 289.620 321.959,290.927 321.721,291.733 321.587 C 294.546 321.118,299.828 319.264,301.600 318.123 C 301.820 317.981,302.240 317.744,302.533 317.595 C 302.827 317.447,303.427 317.089,303.867 316.799 C 304.307 316.509,304.847 316.190,305.067 316.089 C 305.287 315.988,305.527 315.836,305.600 315.752 C 305.673 315.668,306.243 315.253,306.867 314.830 C 307.490 314.407,308.000 313.957,308.000 313.830 C 308.000 313.704,308.131 313.600,308.291 313.600 C 308.450 313.600,309.710 312.471,311.091 311.091 C 312.471 309.710,313.600 308.450,313.600 308.291 C 313.600 308.131,313.704 308.000,313.830 308.000 C 313.957 308.000,314.407 307.490,314.830 306.867 C 315.253 306.243,315.659 305.673,315.733 305.600 C 315.919 305.415,316.481 304.505,316.805 303.867 C 316.953 303.573,317.311 302.973,317.601 302.533 C 317.891 302.093,318.206 301.553,318.303 301.333 C 318.399 301.113,318.774 300.273,319.137 299.467 C 319.966 297.624,321.600 292.582,321.600 291.869 C 321.600 291.574,321.778 290.493,321.995 289.467 C 322.337 287.856,322.391 280.778,322.395 237.800 L 322.400 188.000 307.872 188.000 L 293.344 188.000 293.349 196.867 C 293.400 287.825,293.425 285.946,292.125 288.492 C 291.540 289.637,289.637 291.540,288.492 292.125 C 286.258 293.266,285.562 293.333,276.267 293.312 C 271.353 293.301,267.153 293.292,266.933 293.292 C 266.713 293.292,232.393 293.299,190.667 293.309 C 126.390 293.324,114.617 293.269,113.600 292.953 C 109.375 291.640,107.295 288.981,106.912 284.400 C 106.489 279.341,106.618 114.974,107.046 113.600 C 108.103 110.207,110.207 108.102,113.600 107.046 C 114.610 106.731,122.480 106.672,163.400 106.670 L 212.000 106.667 212.000 92.133 L 212.000 77.600 162.067 77.626 C 119.383 77.648,111.824 77.709,110.000 78.044 M236.000 92.133 L 236.000 106.667 254.089 106.667 C 264.038 106.667,272.253 106.742,272.345 106.833 C 272.436 106.925,245.056 134.455,211.499 168.011 L 150.487 229.022 160.733 239.267 L 170.978 249.512 231.989 188.500 C 265.545 154.944,293.075 127.564,293.167 127.655 C 293.258 127.747,293.333 135.962,293.333 145.911 L 293.333 164.000 307.867 164.000 L 322.400 164.000 322.400 120.800 L 322.400 77.600 279.200 77.600 L 236.000 77.600 236.000 92.133 M171.733 424.400 C 171.456 424.734,171.494 424.800,171.959 424.800 C 172.345 424.800,172.469 424.677,172.363 424.400 C 172.279 424.180,172.177 424.000,172.137 424.000 C 172.098 424.000,171.916 424.180,171.733 424.400 " stroke="none" fill="#343434" fill-rule="evenodd"></path><path id="path1" d="M0.000 213.333 L 0.000 426.667 200.000 426.667 L 400.000 426.667 400.000 213.333 L 400.000 0.000 200.000 0.000 L 0.000 0.000 0.000 213.333 M212.000 92.133 L 212.000 106.667 163.400 106.670 C 122.480 106.672,114.610 106.731,113.600 107.046 C 110.207 108.102,108.103 110.207,107.046 113.600 C 106.618 114.974,106.489 279.341,106.912 284.400 C 107.295 288.981,109.375 291.640,113.600 292.953 C 114.617 293.269,126.390 293.324,190.667 293.309 C 232.393 293.299,266.713 293.292,266.933 293.292 C 267.153 293.292,271.353 293.301,276.267 293.312 C 285.562 293.333,286.258 293.266,288.492 292.125 C 289.637 291.540,291.540 289.637,292.125 288.492 C 293.425 285.946,293.400 287.825,293.349 196.867 L 293.344 188.000 307.872 188.000 L 322.400 188.000 322.395 237.800 C 322.391 280.778,322.337 287.856,321.995 289.467 C 321.778 290.493,321.600 291.574,321.600 291.869 C 321.600 292.582,319.966 297.624,319.137 299.467 C 318.774 300.273,318.399 301.113,318.303 301.333 C 318.206 301.553,317.891 302.093,317.601 302.533 C 317.311 302.973,316.953 303.573,316.805 303.867 C 316.481 304.505,315.919 305.415,315.733 305.600 C 315.659 305.673,315.253 306.243,314.830 306.867 C 314.407 307.490,313.957 308.000,313.830 308.000 C 313.704 308.000,313.600 308.131,313.600 308.291 C 313.600 308.450,312.471 309.710,311.091 311.091 C 309.710 312.471,308.450 313.600,308.291 313.600 C 308.131 313.600,308.000 313.704,308.000 313.830 C 308.000 313.957,307.490 314.407,306.867 314.830 C 306.243 315.253,305.673 315.668,305.600 315.752 C 305.527 315.836,305.287 315.988,305.067 316.089 C 304.847 316.190,304.307 316.509,303.867 316.799 C 303.427 317.089,302.827 317.447,302.533 317.595 C 302.240 317.744,301.820 317.981,301.600 318.123 C 299.828 319.264,294.546 321.118,291.733 321.587 C 290.927 321.721,289.620 321.959,288.830 322.116 C 286.319 322.613,112.897 322.496,110.533 321.995 C 109.507 321.778,108.426 321.600,108.131 321.600 C 107.418 321.600,102.376 319.966,100.533 319.137 C 99.727 318.774,98.887 318.399,98.667 318.303 C 98.447 318.206,97.907 317.891,97.467 317.601 C 97.027 317.311,96.427 316.953,96.133 316.805 C 95.495 316.481,94.585 315.919,94.400 315.733 C 94.327 315.659,93.757 315.253,93.133 314.830 C 92.510 314.407,92.000 313.957,92.000 313.830 C 92.000 313.704,91.869 313.600,91.709 313.600 C 91.330 313.600,86.400 308.670,86.400 308.291 C 86.400 308.131,86.296 308.000,86.170 308.000 C 86.043 308.000,85.593 307.490,85.170 306.867 C 84.747 306.243,84.341 305.673,84.267 305.600 C 84.081 305.415,83.519 304.505,83.195 303.867 C 83.047 303.573,82.694 302.973,82.412 302.533 C 81.096 300.484,78.400 293.332,78.400 291.893 C 78.400 291.585,78.222 290.493,78.005 289.467 C 77.504 287.103,77.387 113.681,77.884 111.170 C 78.041 110.380,78.279 109.073,78.413 108.267 C 78.882 105.454,80.736 100.172,81.877 98.400 C 82.019 98.180,82.256 97.760,82.405 97.467 C 82.553 97.173,82.911 96.573,83.201 96.133 C 83.491 95.693,83.810 95.153,83.911 94.933 C 84.012 94.713,84.164 94.473,84.248 94.400 C 84.332 94.327,84.747 93.757,85.170 93.133 C 85.593 92.510,86.043 92.000,86.170 92.000 C 86.296 92.000,86.400 91.869,86.400 91.709 C 86.400 91.330,91.330 86.400,91.709 86.400 C 91.869 86.400,92.000 86.296,92.000 86.170 C 92.000 86.043,92.510 85.593,93.133 85.170 C 93.757 84.747,94.327 84.341,94.400 84.267 C 94.585 84.081,95.495 83.519,96.133 83.195 C 96.427 83.047,97.027 82.689,97.467 82.399 C 97.907 82.109,98.447 81.794,98.667 81.699 C 98.887 81.603,99.825 81.182,100.752 80.762 C 101.679 80.343,102.561 80.000,102.712 80.000 C 102.863 80.000,103.364 79.835,103.826 79.634 C 104.926 79.154,107.345 78.531,110.000 78.044 C 111.824 77.709,119.383 77.648,162.067 77.626 L 212.000 77.600 212.000 92.133 M322.400 120.800 L 322.400 164.000 307.867 164.000 L 293.333 164.000 293.333 145.911 C 293.333 135.962,293.258 127.747,293.167 127.655 C 293.075 127.564,265.545 154.944,231.989 188.500 L 170.978 249.512 160.733 239.267 L 150.487 229.022 211.499 168.011 C 245.056 134.455,272.436 106.925,272.345 106.833 C 272.253 106.742,264.038 106.667,254.089 106.667 L 236.000 106.667 236.000 92.133 L 236.000 77.600 279.200 77.600 L 322.400 77.600 322.400 120.800 M172.363 424.400 C 172.469 424.677,172.345 424.800,171.959 424.800 C 171.494 424.800,171.456 424.734,171.733 424.400 C 171.916 424.180,172.098 424.000,172.137 424.000 C 172.177 424.000,172.279 424.180,172.363 424.400 " stroke="none" fill="#fbfbfb" fill-rule="evenodd"></path></g></svg>